<?xml version="1.0" encoding="utf-8"?>
<!-- Generator: Adobe Illustrator 26.5.0, SVG Export Plug-In . SVG Version: 6.00 Build 0)  -->
<svg version="1.1" id="Layer_1" xmlns="http://www.w3.org/2000/svg" xmlns:xlink="http://www.w3.org/1999/xlink" x="0px" y="0px"
	 viewBox="0 0 32 32" style="enable-background:new 0 0 32 32;" xml:space="preserve">
<style type="text/css">
	.st0{fill:#FFFFFF;}
</style>
<g id="Layer_2_00000006697010067794027130000001025026828839673240_">
	<g>
		<path class="st0" d="M18.3,21.3v-0.6c0-1.1,0.4-2.1,1.2-2.9c0.9-0.9,1.5-2.2,1.5-3.5c0-2.6-2.1-4.8-4.8-4.8c-0.2,0-0.4,0-0.6,0
			c-2.6,0.3-4.5,2.7-4.2,5.3c0.1,1.1,0.6,2.1,1.4,2.9c0.8,0.8,1.2,1.8,1.2,2.9v0.6c0,0.7,0.5,1.2,1.2,1.2h0h1.8
			C17.8,22.4,18.3,21.9,18.3,21.3z M17.4,21.3c0,0.2-0.1,0.3-0.3,0.3h-1.8c-0.2,0-0.3-0.1-0.3-0.3c0,0,0,0,0,0v-0.6
			c0-1.3-0.6-2.6-1.5-3.5c-1.6-1.5-1.6-4-0.1-5.6c0.6-0.7,1.5-1.1,2.4-1.2h0.4c2.2,0,3.9,1.8,3.9,3.9c0,1.1-0.4,2.1-1.2,2.8
			c-0.9,0.9-1.5,2.2-1.5,3.5L17.4,21.3L17.4,21.3z"/>
		<path class="st0" d="M17.6,22.9h-2.8c-0.2,0-0.3,0.2-0.3,0.5s0.1,0.5,0.3,0.5h2.8c0.2,0,0.3-0.2,0.3-0.5S17.8,22.9,17.6,22.9z"/>
		<path class="st0" d="M18,24.9c0-0.3-0.1-0.5-0.3-0.5h-2.9c-0.2,0-0.3,0.2-0.3,0.5s0.1,0.5,0.3,0.5h2.8C17.8,25.3,18,25.1,18,24.9z
			"/>
		<path class="st0" d="M15.6,5.3v2.8c0.1,0.3,0.4,0.5,0.7,0.5c0.2-0.1,0.4-0.2,0.5-0.5V5.3c-0.1-0.3-0.4-0.5-0.7-0.5
			C15.8,4.9,15.7,5.1,15.6,5.3z"/>
		<path class="st0" d="M17.3,26.4c0-0.3-0.1-0.5-0.3-0.5h-1.4c-0.2,0-0.3,0.2-0.3,0.5s0.1,0.5,0.3,0.5h1.4
			C17.1,26.9,17.3,26.6,17.3,26.4z"/>
		<path class="st0" d="M22.4,7.6l-1.9,2c-0.2,0.2-0.1,0.6,0.1,0.8c0.2,0.2,0.5,0.3,0.8,0.1l1.9-2c0.2-0.2,0.1-0.6-0.1-0.8
			C23,7.5,22.7,7.5,22.4,7.6C22.4,7.6,22.4,7.6,22.4,7.6z"/>
		<path class="st0" d="M9.6,7.7C9.4,7.9,9.4,8.2,9.5,8.5l1.9,2c0.2,0.2,0.6,0.2,0.8-0.1c0.2-0.2,0.3-0.5,0.1-0.8l-1.9-2
			C10.2,7.4,9.8,7.5,9.6,7.7z"/>
		<path class="st0" d="M22.9,15.3h2.8c0.3,0,0.5-0.3,0.5-0.6c0-0.3-0.2-0.6-0.5-0.6h-2.8c-0.3,0-0.5,0.3-0.5,0.6
			C22.4,15,22.6,15.3,22.9,15.3z"/>
		<path class="st0" d="M6.9,15.3h2.8c0.3,0,0.5-0.3,0.5-0.6c0-0.3-0.2-0.6-0.5-0.6H6.9c-0.3,0-0.5,0.3-0.5,0.6
			C6.4,15,6.6,15.3,6.9,15.3z"/>
	</g>
	<path class="st0" d="M16,2C8.3,2,2,8.3,2,16s6.3,14,14,14s14-6.3,14-14S23.7,2,16,2z M16,28.8C8.9,28.8,3.2,23.1,3.2,16
		S8.9,3.2,16,3.2S28.8,8.9,28.8,16C28.8,23.1,23.1,28.8,16,28.8z"/>
</g>
</svg>
