<svg xmlns="http://www.w3.org/2000/svg" viewBox="0 0 32 32"><defs><style>.cls-1{fill:#44d62c;}</style></defs><g id="Layer_2" data-name="Layer 2"><path class="cls-1" d="M16,30A14,14,0,1,1,30,16,14,14,0,0,1,16,30ZM16,3.05A13,13,0,1,0,29,16,13,13,0,0,0,16,3.05Z"/><path class="cls-1" d="M23.57,19.36H8.43a.53.53,0,0,1-.53-.53h0V9.62a1,1,0,0,1,1-1H23.06a1,1,0,0,1,1,1v9.21A.53.53,0,0,1,23.57,19.36ZM9,18.31H23V9.64H8.94Z"/><path class="cls-1" d="M24.3,23.42H7.69a1.06,1.06,0,0,1-1.07-1V21.2a.52.52,0,0,1,.52-.53h17.7a.53.53,0,0,1,.53.53h0v1.18A1.06,1.06,0,0,1,24.3,23.42ZM7.67,21.73v.65l16.63,0v-.63Z"/><path class="cls-1" d="M7.14,21.73a.59.59,0,0,1-.25-.07.54.54,0,0,1-.21-.72h0l1.38-2.5A.53.53,0,0,1,9,19l-1.38,2.5A.54.54,0,0,1,7.14,21.73Z"/><path class="cls-1" d="M24.86,21.73a.54.54,0,0,1-.47-.28L23,19a.53.53,0,1,1,.93-.51l1.38,2.5a.53.53,0,0,1-.21.72h0A.59.59,0,0,1,24.86,21.73Z"/><rect class="cls-1" x="15.34" y="12.49" width="1.32" height="4.57" rx="0.24"/><path class="cls-1" d="M14.13,13.29,15.82,11a.23.23,0,0,1,.38,0L18,13.29Z"/></g></svg>