<?xml version="1.0" encoding="utf-8"?>
<!-- Generator: Adobe Illustrator 26.5.0, SVG Export Plug-In . SVG Version: 6.00 Build 0)  -->
<svg version="1.1" id="Layer_1" xmlns="http://www.w3.org/2000/svg" xmlns:xlink="http://www.w3.org/1999/xlink" x="0px" y="0px"
	 viewBox="0 0 32 32" style="enable-background:new 0 0 32 32;" xml:space="preserve">
<style type="text/css">
	.st0{fill:#FFFFFF;}
</style>
<g id="Layer_2_00000010278407465896674160000011704464474452730248_">
	<g>
		<path class="st0" d="M16,2C8.3,2,2,8.3,2,16s6.3,14,14,14s14-6.3,14-14S23.7,2,16,2z M16,28.9C8.9,28.9,3.1,23.1,3.1,16
			S8.9,3.1,16,3.1S28.9,8.9,28.9,16C28.9,23.1,23.1,28.9,16,28.9z"/>
		<path class="st0" d="M16,14.8l1.9-3.3h-1.4v-4c0-0.3-0.2-0.6-0.6-0.6c-0.3,0-0.6,0.2-0.6,0.6l0,0v4h-1.4L16,14.8z"/>
		<path class="st0" d="M16,17.2l-1.9,3.3h1.4v4c0,0.3,0.2,0.5,0.6,0.5c0.3,0,0.5-0.2,0.5-0.5v-4h1.4L16,17.2z"/>
		<path class="st0" d="M24.5,15.4h-4v-1.4L17.2,16l3.3,1.9v-1.4h4c0.3,0,0.6-0.2,0.6-0.6C25.1,15.7,24.9,15.4,24.5,15.4L24.5,15.4z"
			/>
		<path class="st0" d="M14.8,16l-3.3-1.9v1.4h-4c-0.3,0-0.6,0.2-0.6,0.5c0,0.3,0.2,0.6,0.5,0.6c0,0,0,0,0,0h4v1.4L14.8,16z"/>
	</g>
</g>
</svg>
