<?xml version="1.0" encoding="utf-8"?>
<!-- Generator: Adobe Illustrator 26.5.0, SVG Export Plug-In . SVG Version: 6.00 Build 0)  -->
<svg version="1.1" id="Layer_1" xmlns="http://www.w3.org/2000/svg" xmlns:xlink="http://www.w3.org/1999/xlink" x="0px" y="0px"
	 viewBox="0 0 32 32" style="enable-background:new 0 0 32 32;" xml:space="preserve">
<style type="text/css">
	.st0{fill:#FFFFFF;}
</style>
<g id="Layer_2_00000060011838954407257340000002165429821510386843_">
	<path class="st0" d="M16,30C8.3,30,2,23.7,2,16S8.3,2,16,2s14,6.3,14,14S23.7,30,16,30z M16,3.1C8.9,3.1,3.1,8.9,3.1,16
		S8.9,28.9,16,28.9S28.9,23.1,28.9,16C28.9,8.9,23.1,3.1,16,3.1z"/>
	<path class="st0" d="M16.1,19c-1.6,0-2.9-1.3-2.8-2.9c0-1.6,1.3-2.9,2.9-2.8s2.9,1.3,2.8,2.9c0,0,0,0,0,0C19,17.7,17.7,19,16.1,19z
		"/>
	<rect x="15.6" y="17.4" class="st0" width="1.1" height="12.1"/>
	<path class="st0" d="M23.8,22.6c-0.1,0-0.2,0-0.3-0.1c-0.2-0.2-0.3-0.5-0.2-0.7c2.2-3.4,2.2-7.8-0.1-11.2c-0.2-0.2-0.1-0.6,0.1-0.7
		c0.2-0.2,0.6-0.1,0.7,0.1c0,0,0,0,0,0c2.5,3.7,2.5,8.6,0.1,12.4C24.1,22.5,23.9,22.6,23.8,22.6z"/>
	<path class="st0" d="M20.8,20.2c-0.1,0-0.2,0-0.3-0.1c-0.2-0.2-0.3-0.5-0.2-0.7c0,0,0,0,0,0c1.2-2,1.2-4.5-0.1-6.4
		c-0.2-0.2-0.1-0.6,0.1-0.7c0,0,0,0,0,0c0.2-0.2,0.6-0.1,0.7,0.1c1.5,2.3,1.5,5.2,0.1,7.6C21.1,20.1,21,20.2,20.8,20.2z"/>
	<path class="st0" d="M8.2,22.6c-0.2,0-0.3-0.1-0.4-0.2C5.4,18.6,5.5,13.7,7.9,10c0.2-0.2,0.5-0.3,0.7-0.2c0,0,0,0,0,0
		c0.2,0.2,0.3,0.5,0.1,0.7C6.6,14,6.5,18.3,8.7,21.8c0.2,0.2,0.1,0.6-0.2,0.7C8.5,22.5,8.4,22.6,8.2,22.6z"/>
	<path class="st0" d="M11.2,20.2c-0.2,0-0.3-0.1-0.4-0.2c-1.5-2.3-1.4-5.3,0.1-7.6c0.2-0.2,0.5-0.3,0.7-0.1c0.2,0.2,0.2,0.4,0.1,0.7
		c-1.3,1.9-1.3,4.4-0.1,6.4c0.2,0.2,0.1,0.6-0.1,0.7c0,0,0,0,0,0C11.4,20.1,11.3,20.2,11.2,20.2z"/>
</g>
</svg>
