<?xml version="1.0" encoding="utf-8"?>
<!-- Generator: Adobe Illustrator 26.5.0, SVG Export Plug-In . SVG Version: 6.00 Build 0)  -->
<svg version="1.1" id="Layer_1" xmlns="http://www.w3.org/2000/svg" xmlns:xlink="http://www.w3.org/1999/xlink" x="0px" y="0px"
	 viewBox="0 0 32 32" style="enable-background:new 0 0 32 32;" xml:space="preserve">
<style type="text/css">
	.st0{fill:#fff;}
</style>
<g id="Layer_2_00000012455340160754115720000010943142759545924015_">
	<path class="st0" d="M16.1,22.5c-3.5,0-6.4-2.9-6.4-6.4s2.9-6.4,6.4-6.4s6.4,2.9,6.4,6.4l0,0C22.5,19.6,19.7,22.4,16.1,22.5z
		 M16.1,10.7c-2.9,0-5.3,2.4-5.3,5.3s2.4,5.3,5.3,5.3s5.3-2.4,5.3-5.3S19.1,10.7,16.1,10.7z"/>
	<path class="st0" d="M16,30C8.3,30,2,23.7,2,16S8.3,2,16,2s14,6.3,14,14S23.7,30,16,30z M16,3C8.8,3,3,8.8,2.9,15.9S8.7,29,15.9,29
		s13-5.8,13.1-12.9c0,0,0,0,0-0.1C28.9,8.8,23.2,3,16,3z"/>
	<path class="st0" d="M16.1,6.2c-0.3,0-0.5-0.2-0.5-0.5V3.2c0-0.3,0.2-0.5,0.5-0.5c0.3,0,0.5,0.2,0.5,0.5v2.5
		C16.6,6,16.4,6.2,16.1,6.2L16.1,6.2z"/>
	<path class="st0" d="M23.9,9.4c-0.1,0-0.3-0.1-0.4-0.2c-0.2-0.2-0.2-0.5,0-0.7l1.8-1.8c0.2-0.2,0.5-0.2,0.8,0s0.2,0.5,0,0.8
		l-1.8,1.8C24.2,9.4,24.1,9.5,23.9,9.4z"/>
	<path class="st0" d="M8.2,9.4c-0.1,0-0.3-0.1-0.4-0.2L6.1,7.5C5.9,7.3,5.9,7,6.1,6.8l0,0c0.2-0.2,0.5-0.2,0.7,0l1.8,1.8
		c0.2,0.2,0.2,0.5,0,0.7l0,0C8.5,9.4,8.4,9.5,8.2,9.4z"/>
	<path class="st0" d="M29.5,17.3H27c-0.3,0-0.5-0.2-0.5-0.5s0.2-0.5,0.5-0.5h2.5c0.3,0,0.5,0.2,0.5,0.5C30,17.1,29.8,17.3,29.5,17.3
		L29.5,17.3z"/>
	<path class="st0" d="M5.2,17.3H2.7c-0.3,0-0.5-0.2-0.5-0.5s0.2-0.5,0.5-0.5h2.5c0.3,0,0.5,0.2,0.5,0.5C5.7,17.1,5.5,17.3,5.2,17.3z
		"/>
	<path class="st0" d="M10.6,14.1l0.4-0.8c-2.3-1.1-4.4-1.9-4.5-1.8C6.4,11.7,8.4,12.8,10.6,14.1z"/>
</g>
</svg>
