<?xml version="1.0" encoding="utf-8"?>
<!-- Generator: Adobe Illustrator 26.5.0, SVG Export Plug-In . SVG Version: 6.00 Build 0)  -->
<svg version="1.1" id="Layer_1" xmlns="http://www.w3.org/2000/svg" xmlns:xlink="http://www.w3.org/1999/xlink" x="0px" y="0px"
	 viewBox="0 0 32 32" style="enable-background:new 0 0 32 32;" xml:space="preserve">
<style type="text/css">
	.st0{fill:#FFFFFF;}
</style>
<g id="Layer_2_00000034806247655665217010000012305562292928939924_">
	<path class="st0" d="M16,30C8.3,30,2,23.7,2,16S8.3,2,16,2s14,6.3,14,14S23.7,30,16,30z M16,3.1C8.9,3.1,3.1,8.9,3.1,16
		S8.9,28.9,16,28.9S28.9,23.1,28.9,16C28.9,8.9,23.1,3.1,16,3.1z"/>
	<path class="st0" d="M25.1,17.6c0-0.1,0-0.1,0-0.2L24.3,12c0-1-0.8-1.8-1.8-1.8c0,0,0,0-0.1,0H9.5c-1,0-1.8,0.8-1.9,1.8
		c0,0,0,0,0,0l-0.8,5.6c0,0,0,0.1,0,0.1c0,0.1,0,0.2,0,0.2l1,3.6c0.1,0.2,0.3,0.4,0.5,0.4h15.3c0.2,0,0.4-0.2,0.5-0.4l1-3.6
		C25.2,17.8,25.2,17.7,25.1,17.6z M8.7,12.1c0.1-0.8,0.5-0.9,0.8-0.9h12.9c0.3,0,0.7,0.1,0.8,0.9l0,0l0.8,5.4c0,0.5-0.4,0.8-0.8,0.8
		H8.7c-0.4,0-0.8-0.3-0.8-0.7L8.7,12.1z M8.7,20.8l-0.4-1.4c0.1,0,0.2,0,0.4,0h14.6c0.1,0,0.2,0,0.4,0l-0.4,1.4H8.7z"/>
</g>
</svg>
