<?xml version="1.0" encoding="utf-8"?>
<!-- Generator: Adobe Illustrator 26.5.0, SVG Export Plug-In . SVG Version: 6.00 Build 0)  -->
<svg version="1.1" id="Layer_1" xmlns="http://www.w3.org/2000/svg" xmlns:xlink="http://www.w3.org/1999/xlink" x="0px" y="0px"
	 viewBox="0 0 32 32" style="enable-background:new 0 0 32 32;" xml:space="preserve">
<style type="text/css">
	.st0{fill:#FFFFFF;}
</style>
<g id="Layer_2_00000123417459134715155230000012558483964156770441_">
	<g>
		<path class="st0" d="M16,30C8.3,30,2,23.7,2,16S8.3,2,16,2s14,6.3,14,14S23.7,30,16,30z M16,2.9C8.8,2.9,2.9,8.8,2.9,16
			S8.8,29.1,16,29.1S29.1,23.2,29.1,16l0,0C29.1,8.8,23.2,2.9,16,2.9z"/>
		<path class="st0" d="M12.9,25.7c-0.1,0-0.1,0-0.2,0c-0.2-0.1-0.3-0.4-0.2-0.6l2.8-7.1h-3.7c-0.2,0-0.3-0.1-0.4-0.2
			c-0.1-0.1-0.1-0.3,0-0.5l7.6-10.8c0.1-0.2,0.4-0.2,0.6-0.1c0.2,0.1,0.3,0.3,0.2,0.6L16.6,14h3.8c0.2,0,0.3,0.1,0.4,0.2
			c0.1,0.1,0.1,0.3,0,0.5l-7.5,10.8C13.2,25.6,13.1,25.7,12.9,25.7z M12.4,17.1H16c0.1,0,0.3,0.1,0.4,0.2c0.1,0.1,0.1,0.3,0,0.4
			l-1.6,4l4.8-6.9H16c-0.1,0-0.3-0.1-0.4-0.2c-0.1-0.1-0.1-0.3,0-0.4l1.6-3.9L12.4,17.1z"/>
	</g>
</g>
</svg>
