<svg xmlns="http://www.w3.org/2000/svg" viewBox="0 0 32 32"><defs><style>.cls-1{fill:#44d62c;}</style></defs><title>icon</title><g id="Layer_2" data-name="Layer 2"><path class="cls-1" d="M16,30A14,14,0,1,1,30,16,14,14,0,0,1,16,30ZM16,3.06A12.94,12.94,0,1,0,28.94,16,12.95,12.95,0,0,0,16,3.06Z"/><path class="cls-1" d="M25.44,14.07H24.16V12a.85.85,0,0,0-.88-.8H7.66a.84.84,0,0,0-.88.8v8.4a.83.83,0,0,0,.88.79H23.28a.85.85,0,0,0,.88-.79V18.34h1.28a.64.64,0,0,0,.56-.62v-3A.65.65,0,0,0,25.44,14.07ZM13.06,20.14V12.27h4.81v7.87ZM7.84,12.27H12v7.87H7.84ZM23.1,20.14H18.93V12.27H23.1v7.87ZM25,17.28h-.79V15.13H25Z"/></g></svg>