<?xml version="1.0" encoding="utf-8"?>
<!-- Generator: Adobe Illustrator 26.5.0, SVG Export Plug-In . SVG Version: 6.00 Build 0)  -->
<svg version="1.1" id="Layer_1" xmlns="http://www.w3.org/2000/svg" xmlns:xlink="http://www.w3.org/1999/xlink" x="0px" y="0px"
	 viewBox="0 0 32 32" style="enable-background:new 0 0 32 32;" xml:space="preserve">
<style type="text/css">
	.st0{fill:#FFFFFF;}
</style>
<g id="Layer_2_00000137831807512392012000000010981415110479594381_">
	<g>
		<path class="st0" d="M16,2C8.3,2,2,8.3,2,16s6.3,14,14,14s14-6.3,14-14S23.7,2,16,2z M16,28.9C8.9,28.9,3.1,23.1,3.1,16
			S8.9,3.1,16,3.1S28.9,8.9,28.9,16C28.9,23.1,23.1,28.9,16,28.9z"/>
		<path class="st0" d="M18.9,17.3c0.1-0.9-0.4-1.8-1.3-2.1c0.7-0.5,1.2-1.3,1.1-2.1c0-1.6-0.8-2.4-2.9-2.4c-0.9,0-1.7,0.2-2.5,0.4
			l0.1,1.1c0.8-0.1,1.5-0.2,2.3-0.2c1.1,0,1.5,0.4,1.5,1.2c0,0.8-0.6,1.4-1.3,1.5h-1.8V16h1.8c0.7-0.1,1.4,0.5,1.5,1.2
			c0,0.1,0,0.1,0,0.2c0,0.9-0.5,1.4-1.6,1.4c-0.9,0-1.7-0.1-2.6-0.3l-0.1,1.1c0.9,0.2,1.9,0.4,2.8,0.4C18,20.1,18.9,19.1,18.9,17.3z
			"/>
		<path class="st0" d="M22.5,19.3c-0.1,1.7-1.5,3-3.2,2.9h-6.6C11,22.3,9.6,21,9.5,19.3v-8.8H8.4v8.8c0.1,2.3,2,4.1,4.3,4h6.6
			c2.3,0.1,4.2-1.7,4.3-4v-8.8h-1.1V19.3z"/>
	</g>
</g>
</svg>
