<?xml version="1.0" encoding="utf-8"?>
<!-- Generator: Adobe Illustrator 26.5.0, SVG Export Plug-In . SVG Version: 6.00 Build 0)  -->
<svg version="1.1" id="Layer_1" xmlns="http://www.w3.org/2000/svg" xmlns:xlink="http://www.w3.org/1999/xlink" x="0px" y="0px"
	 viewBox="0 0 32 32" style="enable-background:new 0 0 32 32;" xml:space="preserve">
<style type="text/css">
	.st0{fill:#FFFFFF;}
</style>
<g id="Layer_2_00000121972661801596147450000005619200635845816464_">
	<g>
		<g id="g132">
			<g id="g138">
				<path id="path140" class="st0" d="M23.4,23.2C23.4,23.2,23.4,23.3,23.4,23.2C23.4,23.3,23.4,23.3,23.4,23.2l-0.2,0c0,0,0,0,0,0
					c0,0,0,0,0,0v-0.8c0,0,0,0,0,0L23,22.8c0,0,0,0,0,0h-0.2c0,0,0,0,0,0l-0.2-0.3c0,0,0,0,0,0c0,0,0,0,0,0c0,0,0,0,0,0v0.8
					c0,0,0,0,0,0h-0.2c0,0,0,0,0,0c0,0,0,0,0,0v-1.1c0,0,0,0,0,0s0,0,0,0h0.1c0,0,0,0,0.1,0l0.2,0.5c0,0,0,0,0,0c0,0,0,0,0,0
					l0.2-0.5c0,0,0,0,0.1,0h0.1c0,0,0,0,0,0s0,0,0,0L23.4,23.2z M22.2,22.2C22.2,22.2,22.2,22.2,22.2,22.2
					C22.1,22.3,22.1,22.3,22.2,22.2l-0.3,0v1c0,0,0,0,0,0c0,0,0,0,0,0h-0.2c0,0,0,0,0,0c0,0,0,0,0,0v-1h-0.3c0,0,0,0,0,0
					c0,0,0,0,0,0v-0.1c0,0,0,0,0,0c0,0,0,0,0,0h0.8c0,0,0,0,0,0s0,0,0,0L22.2,22.2z"/>
			</g>
		</g>
		<g id="g142">
			<g id="g144">
				<g id="g150">
					<g id="g152">
						<path id="path164" class="st0" d="M16,13.7h3.8l-4.5,6.7l1.7,0.2l-4.6,3.9l2.3-1.2c0.3,0,1.1,0.1,1.4,0.1l0,0
							c4,0,7.3-3.3,7.3-7.3l0,0c0-2.8-1.6-5.4-4.2-6.6l0,0l0.7-2.7L16,13.7z M8.8,16c0,2.6,1.4,5.1,3.7,6.4l0,0l0.3-3.9l1.1,1.3
							l2.1-4.2h-3.7l2.8-6.8C11.6,9.2,8.8,12.3,8.8,16"/>
					</g>
				</g>
			</g>
		</g>
	</g>
	<path class="st0" d="M16,30C8.3,30,2,23.7,2,16S8.3,2,16,2s14,6.3,14,14C30,23.7,23.7,30,16,30z M16,3.1C8.9,3.1,3.1,8.9,3.1,16
		S8.9,28.9,16,28.9S28.9,23.1,28.9,16l0,0C28.9,8.9,23.1,3.1,16,3.1z"/>
</g>
</svg>
